<svg version="1.2" xmlns="http://www.w3.org/2000/svg" viewBox="0 0 352 119" width="352" height="119">
	<title>mobile_store-ai</title>
	<style>
		.s0 { fill: #fafafa } 
		.s1 { fill: #fff } 
	</style>
	<g id="_Artboards_">
	</g>
	<g id="Layer 1">
		<g id="&lt;Group&gt;">
			<path id="&lt;Compound Path&gt;" fill-rule="evenodd" class="s0" d="m-16.2 181.5v83.7c0 7.4-6.1 13.4-13.5 13.4h-291.3c-7.4 0-13.5-6-13.5-13.4v-83.7c0-7.4 6.1-13.5 13.5-13.5h291.3c7.4 0 13.5 6.1 13.5 13.5zm-254.3 13c0-3.4-2.7-6.1-6-6.1h-26c-3.4 0-6.1 2.7-6.1 6.1v57.7c0 3.4 2.7 6.1 6.1 6.1h26c3.3 0 6-2.7 6-6.1zm-34.4 6.2h30.7v45.5h-30.7zm111.5 39.3q0-6-3.1-9.8-3.2-3.7-7.9-3.7-6 0-9 4.8h-0.1l-0.3-4.3h-5.2q0.2 4.5 0.2 8.8v28.6h5.9v-13.9q2.3 3.8 7.6 3.8 4.9 0 8.2-3.5 3.7-4 3.7-10.8zm108 0.1q0-5.9-3.4-9.7-3.6-3.9-9.4-3.9-6.1 0-9.7 3.9-3.6 4-3.6 10.2 0 5.9 3.5 9.8 3.5 3.9 9.3 3.9 6.1 0 9.8-4.1 3.5-3.9 3.5-10.1zm-78.7-0.1q0-6-3.2-9.8-3.1-3.7-7.9-3.7-6 0-8.9 4.8h-0.1l-0.4-4.3h-5.2q0.3 4.5 0.3 8.8v28.6h5.9v-13.9q2.3 3.8 7.6 3.8 4.9 0 8.2-3.5 3.7-4 3.7-10.8zm-58.3 13.7l-11.9-36.9h-7.4l-11.8 36.9h6.1l3.3-10.9h12l3.4 10.9zm180.3-14.6q0-5-2.4-8.4-2.9-4.3-8.7-4.3-5.8 0-9.3 4.3-3.3 4-3.3 10 0 6.2 3.6 9.8 3.5 3.6 9.7 3.6 5.1 0.1 8.9-1.6l-0.9-4.1q-3.3 1.3-7.2 1.3-3.6 0-5.8-1.9-2.5-2.1-2.6-6h17.8q0.2-1.1 0.2-2.7zm-173.8-30.4c1.8 0 3.2-0.8 4-1.9h0.1l0.3 1.5h3.1c-0.2-0.8-0.2-2-0.2-3.2v-5c0-3-1.3-5.8-5.7-5.8-2.1 0-3.9 0.6-4.9 1.2l0.6 2.3c1-0.6 2.4-1 3.7-1 2.4 0 2.8 1.5 2.8 2.4v0.2c-5.1 0-8.1 1.7-8.1 5.2 0 2.1 1.5 4.1 4.3 4.1zm-37.6-0.4h3.6l1.6-5.3h6l1.7 5.3h3.8l-6.2-18.9h-4.4zm-39.8-13c0-0.4 0.4-0.8 0.7-0.8h6.1c0.4 0 0.7 0.4 0.7 0.8 0 0.3-0.3 0.7-0.7 0.7h-6.1c-0.3 0-0.7-0.4-0.7-0.7zm238.4 6.3c0 4.2 2.6 7 7.1 7 2 0 3.6-0.4 4.8-0.9l-0.5-2.4c-1.1 0.4-2.2 0.6-3.8 0.6-2.3 0-4.2-1-4.3-3.5h9.2c0.1-0.3 0.1-0.8 0.1-1.5 0-3-1.4-6.6-5.9-6.6-4.4 0-6.7 3.5-6.7 7.3zm-51.2-7c0 1.2 0.1 2.5 0.1 4.1v9.6h3.5v-8.1c0-0.4 0-0.8 0.1-1.1 0.4-1 1.4-2 2.7-2 1.9 0 2.6 1.5 2.6 3.4v7.8h3.5v-8.2c0-4.3-2.5-5.8-4.9-5.8-2.2 0-3.7 1.3-4.3 2.3h-0.1l-0.2-2zm-40 7c0 4.2 2.6 7 7 7 2 0 3.6-0.4 4.8-0.9l-0.5-2.4c-1.1 0.4-2.2 0.6-3.8 0.6-2.2 0-4.1-1-4.2-3.5h9.2c0-0.3 0.1-0.8 0.1-1.5 0-3-1.5-6.6-5.9-6.6-4.4 0-6.7 3.5-6.7 7.3zm-7.5 6.7h3.4v-20h-3.4zm-24.7-9.2v0.3c-5.1-0.1-8.1 1.7-8.1 5.1 0 2.1 1.5 4.1 4.3 4.1 1.8 0 3.2-0.7 4-1.8h0.1l0.3 1.5h3.1c-0.2-0.8-0.2-2.1-0.2-3.3v-4.9c0-3-1.3-5.8-5.7-5.8-2.1 0-3.9 0.6-4.9 1.2l0.6 2.3c1-0.6 2.4-1.1 3.7-1.1 2.4 0 2.8 1.5 2.8 2.4zm-25.2-8.3c0 1 0.8 1.8 1.9 1.8 1.2 0 2-0.8 2-1.8 0-1.1-0.8-1.9-1.9-1.9-1.2 0-2 0.8-2 1.9zm0.2 3.8v13.7h3.5v-13.7zm-39.6 5.7h-4.9l1.5-4.7c0.3-1.1 0.6-2.4 0.9-3.5 0.3 1.1 0.6 2.4 1 3.5zm-43.5 51.7c0 1.7-1.4 3.1-3.2 3.1-1.7 0-3.1-1.4-3.1-3.1 0-1.8 1.4-3.2 3.1-3.2 1.8 0 3.2 1.4 3.2 3.2zm50.1-23.4l3.1 9.7h-9.9l3-9.7q1.2-4.6 1.8-6.9h0.1q1.4 5.4 1.9 6.9zm14.2-34h-3.7l-2.2 7c-0.3 1.2-0.7 2.3-0.9 3.4h-0.1c-0.2-1.1-0.5-2.2-0.9-3.4l-2.2-7h-3.8l5.1 13.7h3.4zm7.3 11.6c-1.1 0-2-0.7-2-2 0-2.1 2.4-2.6 4.8-2.6v1.9c0 0.3 0 0.5-0.1 0.8-0.3 1-1.3 1.9-2.7 1.9zm13.7 27.6q1.7 2.5 1.7 6.4 0 4.3-1.8 6.8-1.9 2.6-5.2 2.6-2.9 0-4.7-2-1.7-2-1.7-4.9v-4.4q0-0.7 0.2-1.8 0.6-2.4 2.4-3.9 1.7-1.4 3.9-1.4 3.3 0 5.2 2.6zm10.2-45.4h-3.5v19.9h3.5zm19 45.5q1.8 2.5 1.8 6.4 0 4.2-1.9 6.8-1.9 2.6-5.2 2.6-2.9 0-4.6-2-1.8-2-1.8-4.9v-4.5q0-0.7 0.3-1.8 0.5-2.3 2.3-3.8 1.8-1.4 4-1.4 3.2 0 5.1 2.6zm14.4-32.6c0-4.1-2.4-6.9-5.7-6.9-2.1 0-3.6 0.9-4.4 2.2h-0.1v-8.2h-3.5v16.2c0 1.4 0 2.9-0.1 3.8h3l0.2-2c1 1.6 2.6 2.3 4.3 2.3 3.1 0 6.3-2.4 6.3-7.4zm26.8 42.1q0-3.9-2.3-6.4-2.2-2.6-7-4.5-3.9-1.5-5.3-2.9-1.7-1.4-1.7-3.6 0-1.9 1.4-3.3 1.8-1.5 4.9-1.6 4 0.1 7.1 1.7l1.5-4.8q-3.3-1.7-8.4-1.7-5.6 0-9 2.9-3.5 2.9-3.4 7.4 0 7 9.6 10.6 3.6 1.3 5.1 2.8 1.6 1.6 1.6 3.8 0 2.5-1.9 4-1.9 1.5-5.2 1.5-4.7 0-8.5-2.3l-1.4 5q3.6 2.3 9.6 2.3 6.4 0 10-3.3 3.3-2.9 3.3-7.6zm17.5-16.3h-6.5v-6.6l-5.8 1.7v4.9h-3.9v4.4h3.9v13.5q0 5 2 7.1 2 2.2 5.5 2.2 2.8 0 4.6-0.7l-0.2-4.5q-1 0.3-2.6 0.3-3.5 0-3.5-4.9v-13h6.5zm3.7-25.6c0-4.2-2.7-7.1-6.8-7.1-4.1 0-7.1 2.8-7.1 7.3 0 4.4 3.1 7.1 6.9 7.1 3.5 0 7-2.3 7-7.3zm16.4 32.6q1.6 2.6 1.6 6.3 0 3.6-1.7 6.3-1.9 3.2-5.3 3.2-3.4 0-5.3-3.1-1.6-2.7-1.6-6.3 0-3.8 1.6-6.4 1.8-3.2 5.4-3.2 3.4 0 5.3 3.2zm10.3-36.8h2v6.5c0 1.8 0.3 3 1.1 3.8 0.6 0.7 1.6 1.2 2.9 1.2 1.1 0 2-0.2 2.5-0.4v-2.6c-0.4 0.1-0.7 0.1-1.4 0.1-1.3 0-1.7-0.8-1.7-2.5v-6.1h3.3v-2.6h-3.3v-3.5l-3.4 1v2.5h-2zm15.2 29.4q-0.7-0.1-1.5-0.1-2.3 0-4.3 1.4-2 1.6-2.9 4.2h-0.2l-0.2-5h-5.1q0.1 3.7 0.1 8.3v18.3h5.9v-14c0-2.1 0.5-3.9 1.5-5.2q1.7-2.4 4.8-2.4 1 0 1.9 0.2zm1-27.6c0.4-1 1.4-1.9 2.7-1.9 1.9 0 2.7 1.5 2.7 3.5v7.7h3.4v-8.1c0-4.4-2.4-5.9-4.7-5.9-0.9 0-1.7 0.2-2.4 0.6-0.7 0.4-1.3 0.9-1.8 1.5v-8.1h-3.5v20h3.5v-8.2c0-0.4 0-0.8 0.1-1.1zm17.7 34q1.2 1.9 1.2 4.5h-12.4q0.3-2.7 1.8-4.6 1.8-2.4 4.7-2.4 3.2 0 4.7 2.5zm-112.2-31.6c0 2.7-1.3 4.5-3.4 4.5-1.5 0-2.7-1-3.1-2.5q-0.1-0.3-0.1-0.8v-2.2q0-0.5 0.1-0.9c0.4-1.5 1.7-2.5 3.1-2.5 2.3 0 3.4 1.9 3.4 4.4zm24.3-1.4h-6c0.2-1.4 1.1-3.4 3.2-3.4 2.3 0 2.9 2.1 2.8 3.4zm23.8 1.4c0 2.8-1.4 4.7-3.4 4.7-2.1 0-3.4-2-3.4-4.7 0-2.2 1-4.6 3.5-4.6 2.3 0 3.3 2.5 3.3 4.6zm-65.2 0.2v1.9c0 0.2 0 0.5-0.1 0.7-0.3 1-1.3 1.9-2.7 1.9-1.1 0-2-0.6-2-2 0-2 2.4-2.5 4.8-2.5zm132.7-1.6h-6c0.1-1.4 1-3.4 3.2-3.4 2.3 0 2.8 2.1 2.8 3.4z"/>
		</g>
		<g id="&lt;Group&gt;">
			<g id="&lt;Group&gt;">
				<g id="&lt;Group&gt;">
					<path id="&lt;Compound Path&gt;" fill-rule="evenodd" class="s0" d="m-270.5 91.5c0 3.4-2.7 6.1-6 6.1h-26c-3.4 0-6.1-2.7-6.1-6.1v-57.7c0-3.4 2.7-6.1 6.1-6.1h26c3.3 0 6 2.7 6 6.1zm-19-3.5c-1.8 0-3.2 1.4-3.2 3.2 0 1.7 1.4 3.1 3.2 3.1 1.7 0 3.1-1.4 3.1-3.1 0-1.8-1.4-3.2-3.1-3.2zm-15.4-2.6h30.7v-45.5h-30.7zm107.8 4.6q-3.3 3.5-8.2 3.5-5.3 0-7.6-3.8v14h-5.9v-28.7q0-4.2-0.2-8.7h5.2l0.3 4.2h0.1q3-4.8 9-4.8 4.7 0 7.9 3.8 3.1 3.7 3.1 9.8 0 6.8-3.7 10.7zm108.2-0.6q-3.7 4.1-9.8 4.1-5.8 0-9.3-3.9-3.5-3.9-3.5-9.8 0-6.2 3.6-10.1 3.6-4 9.7-4 5.8 0 9.4 3.9 3.4 3.8 3.4 9.8 0 6.1-3.5 10zm-78.9 0.6q-3.3 3.5-8.2 3.5-5.3 0-7.6-3.8v14h-5.9v-28.7q0-4.2-0.3-8.7h5.2l0.4 4.2h0.1q2.9-4.8 8.9-4.8 4.8 0 7.9 3.8 3.2 3.7 3.2 9.8 0 6.8-3.7 10.7zm-60.9 2.9l-3.4-10.8h-12l-3.3 10.8h-6.1l11.8-36.9h7.4l11.9 36.9zm186.4-11.9h-17.8q0.1 4 2.6 6 2.2 1.9 5.8 1.9 3.9 0 7.2-1.3l0.9 4.1q-3.8 1.7-8.9 1.7-6.2 0-9.7-3.7-3.6-3.6-3.6-9.7 0-6.1 3.3-10.1 3.5-4.2 9.3-4.2 5.8 0 8.7 4.2 2.4 3.4 2.4 8.4 0 1.6-0.2 2.7zm-177.9-37.2c0-3.4 3-5.2 8.1-5.2v-0.2c0-0.9-0.4-2.4-2.8-2.4-1.3 0-2.7 0.4-3.7 1l-0.6-2.2c1-0.6 2.8-1.2 4.9-1.2 4.4 0 5.7 2.7 5.7 5.8v4.9c0 1.2 0 2.4 0.2 3.3h-3.1l-0.3-1.5h-0.1c-0.8 1-2.2 1.8-4 1.8-2.8 0-4.3-2-4.3-4.1zm-27.2-15.2h4.4l6.2 19h-3.8l-1.7-5.4h-6l-1.6 5.4h-3.6zm199.3 4.9c4.4 0 5.9 3.7 5.9 6.7 0 0.6-0.1 1.2-0.1 1.5h-9.2c0.1 2.4 2 3.5 4.2 3.5 1.6 0 2.7-0.2 3.8-0.6l0.5 2.4c-1.2 0.5-2.8 0.8-4.8 0.8-4.4 0-7-2.7-7-6.9 0-3.8 2.3-7.4 6.7-7.4zm-55 0.3l0.2 2.1h0.1c0.6-1.1 2.1-2.4 4.4-2.4 2.4 0 4.9 1.6 4.9 5.9v8.1h-3.5v-7.7c0-2-0.7-3.5-2.6-3.5-1.4 0-2.4 1-2.7 2.1-0.1 0.3-0.2 0.7-0.2 1.1v8h-3.5v-9.6c0-1.6 0-2.9-0.1-4.1zm-36.3-0.3c4.4 0 5.9 3.7 5.9 6.7 0 0.6-0.1 1.2-0.1 1.5h-9.2c0.1 2.4 2 3.5 4.2 3.5 1.6 0 2.8-0.2 3.8-0.6l0.5 2.4c-1.2 0.5-2.8 0.8-4.8 0.8-4.4 0-7-2.7-7-6.9 0-3.8 2.3-7.4 6.7-7.4zm-14.2-5.9h3.5v19.9h-3.5zm-27.5 8.5c-1.3 0-2.7 0.4-3.6 1l-0.7-2.3c1-0.6 2.8-1.2 4.9-1.2 4.4 0 5.7 2.8 5.7 5.8v4.9c0 1.3 0 2.5 0.2 3.3h-3.1l-0.3-1.5c-0.9 1.1-2.3 1.8-4.1 1.8-2.8 0-4.3-2-4.3-4.1 0-3.4 3.1-5.2 8.1-5.1v-0.3c0-0.9-0.3-2.3-2.8-2.3zm-20.4-7.9c1.2 0 1.9 0.8 1.9 1.9 0 1-0.7 1.8-1.9 1.8-1.2 0-2-0.8-2-1.8 0-1.1 0.8-1.9 2-1.9zm1.7 5.7v13.7h-3.5v-13.7zm-44.5 1.1c-0.4-1.2-0.7-2.5-1-3.6-0.3 1.1-0.6 2.4-0.9 3.6l-1.5 4.6h4.9zm-48.2 0.4h6c0.4 0 0.7-0.4 0.7-0.7 0-0.4-0.3-0.8-0.7-0.8h-6c-0.4 0-0.7 0.4-0.7 0.8 0 0.3 0.3 0.7 0.7 0.7zm54.4 25.6h-0.1q-0.6 2.4-1.8 7l-3 9.6h9.9l-3.1-9.6q-0.6-1.5-1.9-7zm10.8-13.3h-3.4l-5.1-13.7h3.7l2.3 6.9c0.4 1.2 0.6 2.3 0.9 3.5h0.1c0.2-1.2 0.5-2.2 0.9-3.5l2.2-6.9h3.6zm15.3-4.1c0.1-0.2 0.1-0.5 0.1-0.7v-1.9c-2.5 0-4.8 0.5-4.8 2.6 0 1.3 0.9 1.9 2 1.9 1.4 0 2.3-0.9 2.7-1.9zm5.8 26.9q-2.2 0-4 1.5-1.8 1.5-2.3 3.8-0.3 1.1-0.3 1.8v4.5q0 2.9 1.8 4.9 1.8 1.9 4.6 1.9 3.3 0.1 5.2-2.5 1.9-2.6 1.9-6.8 0-3.9-1.8-6.4-1.9-2.6-5.1-2.7zm15.4-22.8h-3.5v-20h3.5zm13.8 22.9q-2.2 0-4 1.4-1.7 1.5-2.3 3.8-0.3 1.1-0.3 1.8v4.5q0 2.9 1.8 4.9 1.8 2 4.6 2 3.4 0 5.2-2.6 1.9-2.6 1.9-6.8 0-3.9-1.7-6.4-2-2.6-5.2-2.6zm13.3-22.6c-1.8 0-3.4-0.7-4.3-2.3h-0.1l-0.2 2h-2.9c0-0.9 0.1-2.4 0.1-3.8v-16.2h3.5v8.2c0.9-1.3 2.3-2.2 4.4-2.2 3.4 0 5.7 2.8 5.7 6.9 0 5-3.1 7.4-6.2 7.4zm29.8 42.3q-3.7 3.3-10.1 3.3-6 0-9.6-2.3l1.4-5q3.9 2.3 8.5 2.3 3.4 0 5.2-1.5 1.9-1.5 1.9-4 0-2.2-1.5-3.8-1.6-1.5-5.1-2.8-9.7-3.6-9.7-10.6 0-4.5 3.4-7.4 3.4-2.9 9.1-2.9 5 0 8.4 1.7l-1.5 4.8q-3.2-1.6-7.1-1.7-3.1 0.1-4.9 1.6-1.5 1.4-1.5 3.3 0 2.2 1.7 3.6 1.5 1.4 5.4 2.9 4.7 1.9 7 4.5 2.2 2.5 2.2 6.4 0 4.7-3.2 7.6zm20.8-19.5h-6.5v13q0 4.9 3.4 4.9 1.6 0 2.7-0.3l0.1 4.5q-1.7 0.7-4.6 0.7-3.5 0-5.4-2.2-2-2.1-2-7.1v-13.5h-3.9v-4.4h3.9v-4.9l5.8-1.7v6.6h6.5zm-3.3-22.8c-3.9 0-6.9-2.7-6.9-7.1 0-4.5 3-7.2 7.1-7.2 4.1 0 6.8 2.8 6.8 7 0 5-3.5 7.3-7 7.3zm18 22.2q-3.5 0-5.4 3.1-1.6 2.6-1.6 6.4 0 3.7 1.6 6.3 1.9 3.2 5.4 3.2 3.4 0 5.3-3.3 1.6-2.6 1.6-6.3 0-3.6-1.6-6.3-1.8-3.1-5.3-3.1zm15.7-36.2h1.9v-2.6l3.4-0.9v3.5h3.3v2.6h-3.3v6c0 1.7 0.5 2.5 1.8 2.5 0.6 0 0.9 0 1.3-0.1l0.1 2.6c-0.5 0.2-1.4 0.4-2.5 0.4-1.3 0-2.4-0.4-3-1.1-0.8-0.8-1.1-2.1-1.1-3.9v-6.4h-1.9zm15.1 37.6q-0.8-0.2-1.8-0.2-3.1 0-4.8 2.4c-1 1.4-1.5 3.1-1.5 5.2v14h-5.9v-18.3q0-4.5-0.2-8.3h5.2l0.2 5.1h0.1q1-2.7 3-4.2 2-1.5 4.3-1.5 0.8 0 1.4 0.1zm0.9-32.1v8.2h-3.4v-19.9h3.4v8.1h0.1c0.4-0.7 1-1.2 1.7-1.6 0.7-0.4 1.5-0.6 2.4-0.6 2.3 0 4.8 1.6 4.8 6v8h-3.5v-7.7c0-1.9-0.7-3.5-2.6-3.5-1.4 0-2.3 0.9-2.7 2-0.1 0.3-0.2 0.7-0.2 1zm13.2 30.4q-2.9 0.1-4.8 2.5-1.4 1.9-1.7 4.5h12.3q0.1-2.6-1.1-4.5-1.6-2.5-4.7-2.5zm-111-33.5c-1.4 0-2.7 1-3 2.6q-0.1 0.3-0.1 0.9v2.2q0 0.4 0 0.8c0.4 1.4 1.6 2.4 3.1 2.4 2.2 0 3.5-1.7 3.5-4.5 0-2.4-1.2-4.4-3.5-4.4zm24.9-0.3c-2.1 0-3 1.9-3.1 3.3h6c0-1.2-0.5-3.3-2.9-3.3zm23.3 0.1c-2.4 0-3.4 2.4-3.4 4.7 0 2.6 1.3 4.6 3.4 4.6 1.9 0 3.3-1.9 3.3-4.7 0-2.1-0.9-4.6-3.3-4.6zm-66.6 7.4c0 1.3 0.9 2 2 2 1.4 0 2.4-0.9 2.7-1.9 0.1-0.3 0.1-0.5 0.1-0.8v-1.9c-2.5 0-4.8 0.5-4.8 2.6zm134.6-7.5c-2.1 0-3 1.9-3.2 3.3h6.1c0-1.2-0.6-3.3-2.9-3.3z"/>
				</g>
			</g>
			<g id="&lt;Group&gt;">
				<path id="&lt;Compound Path&gt;" fill-rule="evenodd" class="s0" d="m-29.7 119.9h-291.3c-8.5 0-15.5-6.9-15.5-15.4v-83.7c0-8.5 7-15.5 15.5-15.5h291.3c8.5 0 15.5 7 15.5 15.5v83.7c0 8.5-7 15.4-15.5 15.4zm-291.3-110.6c-6.3 0-11.5 5.2-11.5 11.5v83.7c0 6.3 5.2 11.4 11.5 11.4h291.3c6.3 0 11.5-5.1 11.5-11.4v-83.7c0-6.3-5.2-11.5-11.5-11.5z"/>
			</g>
		</g>
		<g id="&lt;Group&gt;">
			<path id="&lt;Path&gt;" class="s0" d="m154.7 191.6q-1 0-1.7 0.9-0.7 1-0.7 2.4 0 1.4 0.7 2.4 0.8 0.9 1.9 0.9 1 0 1.7-0.9 0.8-1 0.8-2.4 0-1.5-0.8-2.4-0.7-0.9-1.9-0.9z"/>
			<path id="&lt;Path&gt;" class="s0" d="m168.5 191.6q-0.3 0-0.9 0.1 0.1 1.4 0.1 3 0 1.7 0.1 3.3 0.4 0.1 0.9 0.1 1.5 0 2.3-0.9 0.7-1 0.7-2.3 0-1.4-0.8-2.3-0.8-1-2.4-1z"/>
			<path id="&lt;Path&gt;" class="s0" d="m191.7 191.6q-0.5 0-1.1 0.1 0.1 1.3 0.1 3 0.2 0 0.4 0 2.6 0 2.6-1.6 0-1.5-2-1.5z"/>
			<path id="&lt;Path&gt;" class="s0" d="m182.7 191.5q0 0.3-1.3 4h2.6q-1.2-3.7-1.2-4z"/>
			<path id="&lt;Path&gt;" class="s0" d="m115.6 191.5q0 0.3-1.2 4h2.6q-1.2-3.7-1.2-4z"/>
			<path id="&lt;Path&gt;" class="s0" d="m144.7 191.6q-0.7 0-1.2 0.1 0.1 1.1 0.1 2.8 0.4 0 0.6 0 2.3 0 2.3-1.5 0-1.4-1.8-1.4z"/>
			<path id="&lt;Path&gt;" class="s0" d="m134.5 191.6q-0.3 0-0.8 0.1 0.1 1.4 0.1 3 0 1.7 0 3.3 0.5 0.1 0.9 0.1 1.6 0 2.3-0.9 0.7-1 0.7-2.3 0-1.4-0.8-2.3-0.8-1-2.4-1z"/>
			<path id="&lt;Path&gt;" class="s0" d="m213.4 191.6q-1.1 0-1.8 0.9-0.7 1-0.7 2.4 0 1.4 0.8 2.4 0.7 0.9 1.8 0.9 1.1 0 1.8-0.9 0.7-1 0.7-2.4 0-1.5-0.8-2.4-0.7-0.9-1.8-0.9z"/>
			<path id="&lt;Path&gt;" class="s0" d="m200.2 191.6q-0.5 0-1.1 0.1 0.1 1.3 0.1 3 0.2 0 0.4 0 2.6 0 2.6-1.6 0-1.5-2-1.5z"/>
			<path id="&lt;Path&gt;" class="s0" d="m181.7 224.8q-3 0-5.2 2.3-2.1 2.2-2.1 5.9 0 3.6 2.1 5.8 2.2 2.3 5.2 2.3 3 0 5.2-2.3 2.1-2.2 2.1-5.8 0-3.7-2.1-5.9-2.2-2.3-5.2-2.3z"/>
			<path id="&lt;Path&gt;" class="s0" d="m157.2 224.8q-3 0-5.2 2.3-2.2 2.2-2.2 5.9 0 3.6 2.2 5.8 2.2 2.3 5.2 2.3 3 0 5.1-2.3 2.2-2.2 2.2-5.8 0-3.7-2.2-5.9-2.1-2.3-5.1-2.3z"/>
			<path id="&lt;Path&gt;" class="s0" d="m273.6 215.4h-7.1v11.5h7.1q2.6 0 4.2-1.8 1.7-1.8 1.7-4 0-2.1-1.7-3.9-1.6-1.8-4.2-1.8z"/>
			<path id="&lt;Path&gt;" class="s0" d="m299.2 234.4q-1.6 1.3-1.6 3.1 0 1.6 1.4 2.6 1.5 1 3.3 1 2.6 0 4.7-2 2.2-1.9 2.2-4.6-1.8-1.5-5.4-1.5-3.1 0-4.6 1.4z"/>
			<path id="&lt;Path&gt;" class="s0" d="m238.8 224.8q-2.3 0-4 1.5-1.7 1.5-2.4 3.9h13q-0.1-1.9-1.7-3.6-1.7-1.8-4.9-1.8z"/>
			<path id="&lt;Path&gt;" class="s0" d="m206.1 224.8q-3 0-5.1 2.3-2.1 2.2-2.1 5.9 0 3.6 2.1 5.8 2.1 2.3 5.1 2.3 2.9 0 5-2.2 2.1-2.2 2.1-5.9 0-3.8-2.1-6-2.1-2.2-5-2.2z"/>
			<path id="&lt;Compound Path&gt;" fill-rule="evenodd" class="s0" d="m346.5 183v80.7c0 8.2-6.7 14.9-15 14.9h-307.9c-8.3 0-14.9-6.7-14.9-14.9v-80.7c0-8.2 6.6-14.9 14.9-14.9h307.9c8.3 0 15 6.7 15 14.9zm-149.1 11.7q0 2.8-0.1 4.8h2q-0.1-2.2-0.1-3.5 0.2 0 0.5 0 1.8 0 3.1-0.8 1.3-0.8 1.3-2.5 0-1.3-1-1.9-0.9-0.6-2.3-0.6-0.5 0-1.2 0-0.8 0.1-1.1 0.1h-1.2q0.1 1.8 0.1 4.4zm-19.1 4.8h2.1q0-0.5 0.7-2.6h3.2q0.7 2.1 0.7 2.6h2.3q0-0.4-1.5-4.6-1.5-4.2-1.5-4.6h-2.7q0 0.4-1.7 4.7-1.6 4.2-1.6 4.5zm-12.4-4.8q0 2.7-0.1 4.8 1.9 0.1 2.9 0.1 2.3 0 3.6-1.5 1.3-1.5 1.3-3.5 0-1.8-1.1-3.1-1.2-1.3-3.7-1.3-0.2 0-0.8 0-0.6 0.1-0.9 0.1h-1.3q0.1 1.8 0.1 4.4zm-4.5 0q0 2.6-0.1 4.8h2q-0.1-2.1-0.1-4.8 0-2.6 0.1-4.4h-2q0.1 1.8 0.1 4.4zm-11.1 0.4q0 2 1.3 3.3 1.2 1.4 3.1 1.4 2 0 3.3-1.5 1.3-1.4 1.3-3.6 0-2-1.2-3.3-1.3-1.3-3.2-1.3-1.9 0-3.3 1.4-1.3 1.4-1.3 3.6zm-18.3-0.4q0 2.7-0.1 4.8 1.8 0.1 2.9 0.1 2.3 0 3.6-1.5 1.3-1.5 1.3-3.5 0-1.8-1.2-3.1-1.1-1.3-3.7-1.3-0.2 0-0.8 0-0.6 0.1-0.9 0.1h-1.2q0.1 1.8 0.1 4.4zm-10.1 0q0 2.6-0.1 4.8h1.7q-0.1-2.5-0.1-4.3 0-1.2-0.2-2.8h0.2q0.2 1.1 2.3 4 1.9 2.8 1.9 3.1h1.8q-0.1-2.2-0.1-4.8 0-2.7 0.1-4.4h-1.8q0.1 2 0.1 3.9 0 1.3 0.2 2.9h-0.1q-0.3-1-2.2-3.8-1.7-2.7-1.7-3h-2.1q0.1 1.8 0.1 4.4zm-10.7 4.8h2.2q0-0.5 0.6-2.6h3.3q0.7 2.1 0.7 2.6h2.2q0-0.4-1.5-4.6-1.5-4.2-1.5-4.6h-2.6q0 0.4-1.7 4.7-1.7 4.2-1.7 4.5zm-75.2-8.4c0.2 0.3 0.3 0.4 0.4 0.5q17.2 17.4 34.3 34.9c0.5 0.5 0.7 0.3 1-0.1q4.8-4.8 9.6-9.5c0.5-0.5 0.5-0.7-0.1-1.1q-21.6-12-43.1-24.1c-0.6-0.3-1.2-0.6-2.1-0.6zm-0.5 71.4q16.8-16.8 33.7-33.5c0.4-0.5 0.4-0.8 0-1.2q-6.9-7-13.8-13.9-10.6-10.8-21.2-21.6c-0.4-0.5-0.7-0.4-1 0-0.9 1-1.2 2.2-1.2 3.5q0 15.7 0 31.4 0 0 0 0 0 6.6 0 13.2 0 9.3 0 18.6c0 1.5 0.5 2.7 1.7 3.7 0.6 0.5 1.1 0.5 1.8-0.2zm44.5-23.6q-4-4.1-8-8.2c-0.5-0.6-0.8-0.7-1.5 0q-15.6 15.8-31.2 31.6c0.1-0.1 0.3-0.3 0.5-0.4q20.1-11 40.1-22c0.7-0.4 0.6-0.6 0.1-1zm18.8-11.4c-0.1-1.5-1-2.4-2.3-3.1q-6-3.3-12-6.7c-0.5-0.3-0.8-0.2-1.1 0.2q-5.1 5-10.2 10.1c-0.4 0.4-0.4 0.6 0 1q4.4 4.4 8.7 8.9c0.5 0.5 0.8 0.5 1.3 0.2 4.1-2.3 8.1-4.5 12.2-6.7 0.6-0.4 1.3-0.8 2-1.3 0.8-0.6 1.4-1.4 1.4-2.6zm45.1 1.6q0-1.2-0.2-2.5h-16v4h12q-0.4 4.2-2.8 6.6-3.7 3.7-9.2 3.7-5.1 0-8.9-3.7-3.8-3.6-3.8-9.4 0-5.8 3.8-9.5 3.8-3.6 8.9-3.6 5.8 0 9 3.9l2.9-2.9q-1.9-2.3-5.1-3.7-3.2-1.4-6.8-1.4-7.1 0-12 5-5 4.9-5 12.2 0 7.3 5 12.2 4.9 4.9 12 4.9 7.5 0 12.1-4.8 4.1-4.1 4.1-11zm0.5-33.3q1 0 1.4 0.6 0.4 0.6 1.3 3.1h2.1q-1-2.4-1.5-3.4-0.5-0.9-1.3-1.1v-0.1q1.9-0.7 1.9-2.4 0-2.3-3.3-2.3-0.5 0-1.2 0-0.7 0.1-0.9 0.1h-1.2q0.1 1.8 0.1 4.4 0 2.7-0.1 4.8h2q-0.1-1.9-0.1-3.7 0.4 0 0.8 0zm24.3 37.2q0-5.2-3.2-8.6-3.3-3.4-8.3-3.4-5.1 0-8.3 3.4-3.3 3.4-3.3 8.6 0 5.1 3.3 8.5 3.2 3.4 8.3 3.4 5 0 8.3-3.4 3.2-3.4 3.2-8.5zm24.6 0q0-5.2-3.3-8.6-3.3-3.4-8.3-3.4-5 0-8.3 3.4-3.2 3.4-3.2 8.6 0 5.1 3.2 8.5 3.3 3.4 8.3 3.4 5 0 8.3-3.4 3.3-3.4 3.3-8.5zm1-37.8q1.2-0.8 1.2-2.5 0-1.3-0.9-1.9-0.9-0.6-2.3-0.6-0.5 0-1.3 0-0.7 0.1-1 0.1h-1.2q0.1 1.8 0.1 4.4 0 2.8-0.1 4.8h2q-0.1-2.2-0.1-3.5 0.2 0 0.5 0 1.8 0 3.1-0.8zm22.9 26.5h-4v3.1h-0.2q-1.1-1.6-3.1-2.7-2-1.1-4.5-1.1-4.4 0-7.6 3.4-3.1 3.5-3.1 8.6 0 5 3.1 8.5 3.2 3.4 7.6 3.4 2.5 0 4.5-1.1 2-1.1 3.1-2.7h0.2v2.1q0 3.6-2 5.7-2 2.1-5.5 2.1-2.2 0-3.9-1.3-1.7-1.2-2.3-3l-3.9 1.6q1.1 2.5 3.6 4.5 2.5 2 6.5 2 4.8 0 8.2-3 3.3-3 3.3-8.8zm0.8-27q0-2-1.3-3.3-1.3-1.3-3.1-1.3-2 0-3.3 1.4-1.4 1.4-1.4 3.6 0 2.1 1.3 3.4 1.3 1.3 3.1 1.3 2 0 3.3-1.5 1.4-1.4 1.4-3.6zm7.4 16.7h-4.2v32.8h4.2zm2.1-16.7q0-2.6 0.1-4.4h-1.8q0.1 2 0.1 4 0 1.2 0.2 2.8h-0.1q-0.3-1-2.2-3.8-1.7-2.6-1.7-3h-2.1q0.1 1.8 0.1 4.4 0 2.7-0.1 4.9h1.7q-0.1-2.6-0.1-4.3 0-1.3-0.2-2.8h0.1q0.3 1.1 2.4 4 1.9 2.8 1.9 3.1h1.8q-0.1-2.2-0.1-4.9zm22.4 38.3q0-5.5-3-8.7-3-3.3-8-3.3-4.8 0-7.9 3.6-3.1 3.5-3.1 8.4 0 5.2 3.2 8.6 3.2 3.4 8.3 3.4 3.7 0 6.2-1.8 2.5-1.8 3.6-4.4l-3.8-1.5q-1.6 3.8-6.1 3.8-2.8 0-4.9-2-2.1-1.9-2.3-5.3h17.8zm33.8-11.8q0-4.3-3-7-3.1-2.8-7.3-2.8h-11.1v32.8h4.2v-13.3h6.9q4.2 0 7.3-2.8 3-2.7 3-6.9zm7-9.8h-4.2v32.8h4.2zm22.5 19.3q0-4.6-2.9-7.1-2.8-2.6-7.1-2.6-3.8 0-6.1 1.8-2.3 1.7-3.1 3.7l3.9 1.6q0.5-1.5 2-2.3 1.5-0.9 3.4-0.9 2.4 0 4.1 1.5 1.7 1.5 1.7 4v0.6q-2.4-1.4-6.1-1.4-4.2 0-7 2.1-2.8 2.1-2.8 5.8 0 3.4 2.4 5.4 2.4 2.1 6 2.1 4.8 0 7.3-3.9h0.2v3.1h4.1zm23.2-8.9h-4.6l-6.5 16.2h-0.1l-6.7-16.2h-4.6l9.3 21.1-5.2 11.3h4.3z"/>
		</g>
		<g id="&lt;Group&gt;">
			<path id="&lt;Compound Path&gt;" fill-rule="evenodd" class="s0" d="m331.5 117.8h-307.9c-9.4 0-16.9-7.6-16.9-16.9v-80.6c0-9.4 7.5-17 16.9-17h307.9c9.4 0 17 7.6 17 17v80.6c0 9.3-7.6 16.9-17 16.9zm-307.9-110.5c-7.1 0-12.9 5.8-12.9 13v80.6c0 7.1 5.8 12.9 12.9 12.9h307.9c7.2 0 13-5.8 13-12.9v-80.6c0-7.2-5.8-13-13-13z"/>
		</g>
		<g id="&lt;Group&gt;">
			<path id="&lt;Compound Path&gt;" fill-rule="evenodd" class="s1" d="m120.2 36.8h-2.2q0-0.5-0.7-2.7h-3.3q-0.6 2.2-0.6 2.7h-2.2q0-0.3 1.7-4.6 1.7-4.2 1.7-4.7h2.6q0 0.4 1.5 4.7 1.5 4.2 1.5 4.6zm-3.2-4q-1.2-3.7-1.2-4h-0.2q0 0.3-1.2 4z"/>
			<path id="&lt;Compound Path&gt;" class="s1" d="m129.4 36.8h-1.8q0-0.3-1.9-3.1-2.1-2.9-2.3-4h-0.2q0.2 1.5 0.2 2.8 0 1.7 0.1 4.3h-1.7q0.1-2.2 0.1-4.9 0-2.6-0.1-4.4h2.1q0 0.4 1.7 3 1.9 2.8 2.2 3.8h0.1q-0.2-1.6-0.2-2.8 0-2-0.1-4h1.8q-0.1 1.8-0.1 4.4 0 2.7 0.1 4.9z"/>
			<path id="&lt;Compound Path&gt;" fill-rule="evenodd" class="s1" d="m139.7 31.8q0 2-1.3 3.5-1.3 1.5-3.6 1.5-1.1 0-2.9 0 0.1-2.2 0.1-4.9 0-2.6-0.1-4.4h1.2q0.3 0 0.9 0 0.6 0 0.8 0 2.6 0 3.7 1.3 1.2 1.2 1.2 3zm-2 0.3q0-1.3-0.8-2.3-0.8-0.9-2.4-0.9-0.3 0-0.8 0.1 0.1 1.4 0.1 2.9 0 1.7 0 3.4 0.5 0.1 0.9 0.1 1.6 0 2.3-1 0.7-0.9 0.7-2.3z"/>
			<path id="&lt;Compound Path&gt;" fill-rule="evenodd" class="s1" d="m149.2 36.8h-2.1q-0.9-2.6-1.3-3.1-0.4-0.6-1.4-0.6-0.4 0-0.8 0 0 1.8 0.1 3.7h-2q0.1-2.2 0.1-4.9 0-2.6-0.1-4.4h1.2q0.2 0 0.9 0 0.7 0 1.2 0 3.3 0 3.3 2.2 0 1.8-1.9 2.5v0.1q0.8 0.2 1.3 1.1 0.5 0.9 1.5 3.4zm-2.7-6.6q0-1.4-1.8-1.4-0.7 0-1.2 0.1 0.1 1.1 0.1 2.9 0.4 0 0.6 0 2.3 0 2.3-1.6z"/>
			<path id="&lt;Compound Path&gt;" fill-rule="evenodd" class="s1" d="m159.3 32q0 2.1-1.3 3.6-1.3 1.4-3.3 1.4-1.9 0-3.1-1.3-1.3-1.3-1.3-3.3 0-2.2 1.3-3.7 1.4-1.4 3.3-1.4 1.9 0 3.2 1.3 1.2 1.3 1.2 3.4zm-1.9 0.2q0-1.5-0.8-2.4-0.7-1-1.9-1-1 0-1.7 1-0.7 0.9-0.7 2.3 0 1.5 0.7 2.4 0.8 1 1.9 1 1 0 1.7-1 0.8-0.9 0.8-2.3z"/>
			<path id="&lt;Compound Path&gt;" class="s1" d="m163.3 36.8h-2q0.1-2.2 0.1-4.9 0-2.6-0.1-4.4h2q-0.1 1.8-0.1 4.4 0 2.7 0.1 4.9z"/>
			<path id="&lt;Compound Path&gt;" fill-rule="evenodd" class="s1" d="m173.6 31.8q0 2-1.3 3.5-1.3 1.5-3.6 1.5-1 0-2.9 0 0.1-2.2 0.1-4.9 0-2.6-0.1-4.4h1.3q0.3 0 0.9 0 0.6 0 0.8 0 2.5 0 3.7 1.3 1.1 1.2 1.1 3zm-1.9 0.3q0-1.3-0.8-2.3-0.8-0.9-2.4-0.9-0.3 0-0.9 0.1 0.1 1.4 0.1 2.9 0 1.7 0.1 3.4 0.4 0.1 0.9 0.1 1.5 0 2.3-1 0.7-0.9 0.7-2.3z"/>
			<path id="&lt;Compound Path&gt;" fill-rule="evenodd" class="s1" d="m187.3 36.8h-2.3q0-0.5-0.7-2.7h-3.2q-0.7 2.2-0.7 2.7h-2.1q0-0.3 1.6-4.6 1.7-4.2 1.7-4.7h2.7q0 0.4 1.5 4.7 1.5 4.2 1.5 4.6zm-3.3-4q-1.2-3.7-1.2-4h-0.1q0 0.3-1.3 4z"/>
			<path id="&lt;Compound Path&gt;" fill-rule="evenodd" class="s1" d="m195.5 29.9q0 1.7-1.2 2.5-1.3 0.9-3.1 0.9-0.3 0-0.5-0.1 0 1.4 0.1 3.6h-2q0.1-2.1 0.1-4.9 0-2.5-0.1-4.4h1.2q0.3 0 1 0 0.8 0 1.3 0 1.4 0 2.3 0.6 0.9 0.6 0.9 1.8zm-1.8 0.4q0-1.5-2-1.5-0.5 0-1.1 0.1 0.1 1.4 0.1 3.1 0.2 0 0.4 0 2.6 0 2.6-1.7z"/>
			<path id="&lt;Compound Path&gt;" fill-rule="evenodd" class="s1" d="m204.1 29.9q0 1.7-1.3 2.5-1.3 0.9-3.1 0.9-0.3 0-0.5-0.1 0 1.4 0.1 3.6h-2q0.1-2.1 0.1-4.9 0-2.5-0.1-4.4h1.2q0.3 0 1.1 0 0.7 0 1.2 0 1.4 0 2.3 0.6 1 0.6 1 1.8zm-1.9 0.4q0-1.5-2-1.5-0.5 0-1.1 0.1 0.1 1.4 0.1 3.1 0.2 0 0.4 0 2.6 0 2.6-1.7z"/>
			<path id="&lt;Compound Path&gt;" fill-rule="evenodd" class="s1" d="m218 32q0 2.1-1.4 3.6-1.3 1.4-3.3 1.4-1.8 0-3.1-1.3-1.3-1.3-1.3-3.3 0-2.2 1.4-3.7 1.3-1.4 3.3-1.4 1.8 0 3.1 1.3 1.3 1.3 1.3 3.4zm-2 0.2q0-1.5-0.8-2.4-0.7-1-1.8-1-1.1 0-1.8 1-0.7 0.9-0.7 2.3 0 1.5 0.8 2.4 0.7 1 1.8 1 1.1 0 1.8-1 0.7-0.9 0.7-2.3z"/>
			<path id="&lt;Compound Path&gt;" class="s1" d="m227.6 36.8h-1.8q0-0.3-1.9-3.1-2.1-2.9-2.4-4h-0.1q0.2 1.5 0.2 2.8 0 1.7 0.1 4.3h-1.7q0.1-2.2 0.1-4.9 0-2.6-0.1-4.4h2.1q0 0.4 1.7 3 1.9 2.8 2.2 3.8h0.1q-0.2-1.6-0.2-2.8 0-2-0.1-4h1.8q-0.1 1.8-0.1 4.4 0 2.7 0.1 4.9z"/>
		</g>
		<g id="&lt;Group&gt;">
			<path id="&lt;Compound Path&gt;" class="s1" d="m143.9 66.4q0 6.8-4.1 10.9-4.6 4.9-12.1 4.9-7.1 0-12-5-5-4.9-5-12.2 0-7.3 5-12.2 4.9-4.9 12-4.9 3.6 0 6.8 1.4 3.2 1.3 5.1 3.6l-2.9 2.9q-3.2-3.9-9-3.9-5.1 0-8.9 3.7-3.8 3.6-3.8 9.4 0 5.8 3.8 9.5 3.8 3.6 8.9 3.6 5.5 0 9.2-3.6 2.4-2.4 2.8-6.7h-12v-3.9h16q0.2 1.3 0.2 2.5z"/>
			<path id="&lt;Compound Path&gt;" fill-rule="evenodd" class="s1" d="m148.9 61.7q3.2-3.5 8.3-3.5 5 0 8.3 3.5 3.2 3.4 3.2 8.5 0 5.1-3.2 8.6-3.3 3.4-8.3 3.4-5.1 0-8.3-3.4-3.3-3.5-3.3-8.6 0-5.1 3.3-8.5zm3.1 14.4q2.2 2.2 5.2 2.2 3 0 5.1-2.2 2.2-2.2 2.2-5.9 0-3.7-2.2-5.9-2.1-2.2-5.1-2.2-3 0-5.2 2.2-2.2 2.2-2.2 5.9 0 3.7 2.2 5.9z"/>
			<path id="&lt;Compound Path&gt;" fill-rule="evenodd" class="s1" d="m173.4 61.7q3.3-3.5 8.3-3.5 5 0 8.3 3.5 3.3 3.4 3.3 8.5 0 5.1-3.3 8.6-3.3 3.4-8.3 3.4-5 0-8.3-3.4-3.2-3.5-3.2-8.6 0-5.1 3.2-8.5zm3.1 14.4q2.2 2.2 5.2 2.2 3 0 5.2-2.2 2.1-2.2 2.1-5.9 0-3.7-2.1-5.9-2.2-2.2-5.2-2.2-3 0-5.2 2.2-2.1 2.2-2.1 5.9 0 3.7 2.1 5.9z"/>
			<path id="&lt;Compound Path&gt;" fill-rule="evenodd" class="s1" d="m205.7 92.1q-4 0-6.5-2-2.5-2-3.6-4.6l3.9-1.6q0.6 1.8 2.3 3.1 1.7 1.2 3.9 1.2 3.5 0 5.5-2.1 2-2 2-5.6v-2.2h-0.2q-1.1 1.7-3.1 2.8-2 1.1-4.5 1.1-4.4 0-7.6-3.5-3.1-3.4-3.1-8.5 0-5.1 3.1-8.5 3.2-3.5 7.6-3.5 2.5 0 4.5 1.1 2 1.1 3.1 2.8h0.2v-3.1h4v21.3q0 5.8-3.3 8.8-3.4 3-8.2 3zm0.4-13.8q2.9 0 5-2.2 2.1-2.2 2.1-5.9 0-3.7-2.1-5.9-2.1-2.2-5-2.2-3 0-5.1 2.2-2.1 2.2-2.1 5.9 0 3.7 2.1 5.9 2.1 2.2 5.1 2.2z"/>
			<path id="&lt;Compound Path&gt;" class="s1" d="m225.4 81.4h-4.2v-32.8h4.2z"/>
			<path id="&lt;Compound Path&gt;" fill-rule="evenodd" class="s1" d="m239.4 82.2q-5.1 0-8.3-3.4-3.2-3.4-3.2-8.6 0-4.9 3.1-8.4 3.1-3.6 7.9-3.6 5 0 8 3.3 3 3.3 3 8.7v0.8h-17.8q0.2 3.4 2.3 5.3 2.1 2 4.9 2 4.5 0 6.1-3.8l3.8 1.5q-1.1 2.6-3.6 4.4-2.5 1.8-6.2 1.8zm6-14.7q-0.1-1.9-1.7-3.7-1.7-1.7-4.9-1.7-2.3 0-4 1.5-1.7 1.4-2.4 3.9z"/>
			<path id="&lt;Compound Path&gt;" fill-rule="evenodd" class="s1" d="m266.5 81.4h-4.2v-32.8h11.2q4.2 0 7.2 2.8 3.1 2.8 3.1 7 0 4.2-3.1 7-3 2.7-7.2 2.7h-7zm0-17.3h7.1q2.6 0 4.2-1.8 1.7-1.8 1.7-3.9 0-2.2-1.7-4-1.6-1.8-4.2-1.8h-7.1z"/>
			<path id="&lt;Compound Path&gt;" class="s1" d="m290.7 81.4h-4.2v-32.8h4.2z"/>
			<path id="&lt;Compound Path&gt;" fill-rule="evenodd" class="s1" d="m301.6 82.2q-3.6 0-6-2.1-2.4-2.1-2.4-5.4 0-3.7 2.9-5.8 2.8-2.1 7-2.1 3.7 0 6.1 1.4v-0.7q0-2.4-1.7-3.9-1.7-1.5-4.2-1.5-1.8 0-3.3 0.9-1.5 0.8-2.1 2.3l-3.8-1.6q0.8-2 3.1-3.7 2.2-1.8 6-1.8 4.3 0 7.2 2.6 2.8 2.5 2.8 7.1v13.5h-4v-3.1h-0.2q-2.5 3.9-7.4 3.9zm0.7-3.9q2.6 0 4.7-1.9 2.2-2 2.2-4.6-1.8-1.5-5.4-1.5-3.1 0-4.6 1.3-1.6 1.4-1.6 3.1 0 1.7 1.4 2.7 1.5 0.9 3.3 0.9z"/>
			<path id="&lt;Compound Path&gt;" class="s1" d="m322.4 91.3h-4.4l5.2-11.3-9.2-21h4.6l6.7 16.1 6.6-16.1h4.5z"/>
		</g>
		<g id="&lt;Group&gt;">
			<path id="&lt;Path&gt;" class="s0" d="m32 64.5q0-15.8 0-31.5c0-1.3 0.3-2.4 1.2-3.4 0.3-0.4 0.6-0.5 1-0.1q10.6 10.8 21.2 21.6 6.9 7 13.8 13.9c0.4 0.5 0.4 0.7 0 1.2q-16.9 16.8-33.7 33.6c-0.7 0.7-1.2 0.6-1.8 0.1-1.2-0.9-1.7-2.2-1.7-3.6q0-9.3 0-18.7 0-6.5 0-13.1 0 0 0 0z"/>
			<path id="&lt;Path&gt;" class="s0" d="m36 28.4c0.9 0 1.5 0.2 2.1 0.5q21.5 12.1 43.1 24.2c0.6 0.3 0.6 0.6 0.1 1.1q-4.8 4.7-9.6 9.5c-0.3 0.3-0.5 0.5-1 0.1q-17.1-17.5-34.3-35c-0.1-0.1-0.2-0.2-0.4-0.4z"/>
			<path id="&lt;Path&gt;" class="s0" d="m39.3 99.5q15.6-15.8 31.2-31.6c0.7-0.6 1-0.6 1.5 0q4 4.2 8 8.2c0.5 0.5 0.6 0.7-0.1 1q-20 11-40.1 22c-0.2 0.2-0.4 0.4-0.5 0.4z"/>
			<path id="&lt;Path&gt;" class="s0" d="m98.8 64.8c0 1.1-0.6 2-1.4 2.6-0.7 0.5-1.4 0.8-2 1.2-4.1 2.2-8.1 4.5-12.2 6.7-0.5 0.3-0.8 0.3-1.3-0.2q-4.3-4.4-8.7-8.8c-0.4-0.4-0.4-0.7 0-1.1q5.1-5 10.2-10.1c0.3-0.4 0.6-0.4 1.1-0.1q6 3.3 12 6.7c1.3 0.7 2.2 1.6 2.3 3.1z"/>
		</g>
	</g>
</svg>