<svg version="1.2" xmlns="http://www.w3.org/2000/svg" viewBox="0 0 328 118" width="328" height="118">
	<title>mobile_store-ai</title>
	<style>
		.s0 { fill: #fff } 
	</style>
	<g id="_Artboards_">
	</g>
	<g id="Layer 1">
		<g id="&lt;Group&gt;">
			<g id="&lt;Group&gt;">
				<g id="&lt;Group&gt;">
					<path id="&lt;Compound Path&gt;" fill-rule="evenodd" class="s0" d="m68.5 88.5c0 3.4-2.7 6.1-6 6.1h-26c-3.4 0-6.1-2.7-6.1-6.1v-57.7c0-3.4 2.7-6.1 6.1-6.1h26c3.3 0 6 2.7 6 6.1zm-19-3.5c-1.8 0-3.2 1.4-3.2 3.2 0 1.7 1.4 3.1 3.2 3.1 1.7 0 3.1-1.4 3.1-3.1 0-1.8-1.4-3.2-3.1-3.2zm-15.4-2.6h30.7v-45.5h-30.7zm107.8 4.6q-3.3 3.5-8.2 3.5-5.3 0-7.6-3.8v14h-5.9v-28.7q0-4.2-0.2-8.7h5.2l0.3 4.2h0.1q3-4.8 9-4.8 4.7 0 7.9 3.8 3.1 3.7 3.1 9.8 0 6.8-3.7 10.7zm108.2-0.6q-3.7 4.1-9.8 4.1-5.8 0-9.3-3.9-3.5-3.9-3.5-9.8 0-6.2 3.6-10.1 3.6-4 9.7-4 5.8 0 9.4 3.9 3.4 3.8 3.4 9.8 0 6.1-3.5 10zm-78.9 0.6q-3.3 3.5-8.2 3.5-5.3 0-7.6-3.8v14h-5.9v-28.7q0-4.2-0.3-8.7h5.2l0.4 4.2h0.1q2.9-4.8 8.9-4.8 4.8 0 7.9 3.8 3.2 3.7 3.2 9.8 0 6.8-3.7 10.7zm-60.9 2.9l-3.4-10.8h-12l-3.3 10.8h-6.1l11.8-36.9h7.4l11.9 36.9zm186.4-11.9h-17.8q0.1 4 2.6 6 2.2 1.9 5.8 1.9 3.9 0 7.2-1.3l0.9 4.1q-3.8 1.7-8.9 1.7-6.2 0-9.7-3.7-3.6-3.6-3.6-9.7 0-6.1 3.3-10.1 3.5-4.2 9.3-4.2 5.8 0 8.7 4.2 2.4 3.4 2.4 8.4 0 1.6-0.2 2.7zm-177.9-37.2c0-3.4 3-5.2 8.1-5.2v-0.2c0-0.9-0.4-2.4-2.8-2.4-1.3 0-2.7 0.4-3.7 1l-0.6-2.2c1-0.6 2.8-1.2 4.9-1.2 4.4 0 5.7 2.7 5.7 5.8v4.9c0 1.2 0 2.4 0.2 3.3h-3.1l-0.3-1.5h-0.1c-0.8 1-2.2 1.8-4 1.8-2.8 0-4.3-2-4.3-4.1zm-27.2-15.2h4.4l6.2 19h-3.8l-1.7-5.4h-6l-1.6 5.4h-3.6zm199.3 4.9c4.4 0 5.9 3.7 5.9 6.7 0 0.6-0.1 1.2-0.1 1.5h-9.2c0.1 2.4 2 3.5 4.2 3.5 1.6 0 2.7-0.2 3.8-0.6l0.5 2.4c-1.2 0.5-2.8 0.8-4.8 0.8-4.4 0-7-2.7-7-6.9 0-3.8 2.3-7.4 6.7-7.4zm-55 0.3l0.2 2.1h0.1c0.6-1.1 2.1-2.4 4.4-2.4 2.4 0 4.9 1.6 4.9 5.9v8.1h-3.5v-7.7c0-2-0.7-3.5-2.6-3.5-1.4 0-2.4 1-2.7 2.1-0.1 0.3-0.2 0.7-0.2 1.1v8h-3.5v-9.6c0-1.6 0-2.9-0.1-4.1zm-36.3-0.3c4.4 0 5.9 3.7 5.9 6.7 0 0.6-0.1 1.2-0.1 1.5h-9.2c0.1 2.4 2 3.5 4.2 3.5 1.6 0 2.8-0.2 3.8-0.6l0.5 2.4c-1.2 0.5-2.8 0.8-4.8 0.8-4.4 0-7-2.7-7-6.9 0-3.8 2.3-7.4 6.7-7.4zm-14.2-5.9h3.5v19.9h-3.5zm-27.5 8.5c-1.3 0-2.7 0.4-3.6 1l-0.7-2.3c1-0.6 2.8-1.2 4.9-1.2 4.4 0 5.7 2.8 5.7 5.8v4.9c0 1.3 0 2.5 0.2 3.3h-3.1l-0.3-1.5c-0.9 1.1-2.3 1.8-4.1 1.8-2.8 0-4.3-2-4.3-4.1 0-3.4 3.1-5.2 8.1-5.1v-0.3c0-0.9-0.3-2.3-2.8-2.3zm-20.4-7.9c1.2 0 1.9 0.8 1.9 1.9 0 1-0.7 1.8-1.9 1.8-1.2 0-2-0.8-2-1.8 0-1.1 0.8-1.9 2-1.9zm1.7 5.7v13.7h-3.5v-13.7zm-44.5 1.1c-0.4-1.2-0.7-2.5-1-3.6-0.3 1.1-0.6 2.4-0.9 3.6l-1.5 4.6h4.9zm-48.2 0.4h6c0.4 0 0.7-0.4 0.7-0.7 0-0.4-0.3-0.8-0.7-0.8h-6c-0.4 0-0.7 0.4-0.7 0.8 0 0.3 0.3 0.7 0.7 0.7zm54.4 25.6h-0.1q-0.6 2.4-1.8 7l-3 9.6h9.9l-3.1-9.6q-0.6-1.5-1.9-7zm10.8-13.3h-3.4l-5.1-13.7h3.7l2.3 6.9c0.4 1.2 0.6 2.3 0.9 3.5h0.1c0.2-1.2 0.5-2.2 0.9-3.5l2.2-6.9h3.6zm15.3-4.1c0.1-0.2 0.1-0.5 0.1-0.7v-1.9c-2.5 0-4.8 0.5-4.8 2.6 0 1.3 0.9 1.9 2 1.9 1.4 0 2.3-0.9 2.7-1.9zm5.8 26.9q-2.2 0-4 1.5-1.8 1.5-2.3 3.8-0.3 1.1-0.3 1.8v4.5q0 2.9 1.8 4.9 1.8 1.9 4.6 1.9 3.3 0.1 5.2-2.5 1.9-2.6 1.9-6.8 0-3.9-1.8-6.4-1.9-2.6-5.1-2.7zm15.4-22.8h-3.5v-20h3.5zm13.8 22.9q-2.2 0-4 1.4-1.7 1.5-2.3 3.8-0.3 1.1-0.3 1.8v4.5q0 2.9 1.8 4.9 1.8 2 4.6 2 3.4 0 5.2-2.6 1.9-2.6 1.9-6.8 0-3.9-1.7-6.4-2-2.6-5.2-2.6zm13.3-22.6c-1.8 0-3.4-0.7-4.3-2.3h-0.1l-0.2 2h-2.9c0-0.9 0.1-2.4 0.1-3.8v-16.2h3.5v8.2c0.9-1.3 2.3-2.2 4.4-2.2 3.4 0 5.7 2.8 5.7 6.9 0 5-3.1 7.4-6.2 7.4zm29.8 42.3q-3.7 3.3-10.1 3.3-6 0-9.6-2.3l1.4-5q3.9 2.3 8.5 2.3 3.4 0 5.2-1.5 1.9-1.5 1.9-4 0-2.2-1.5-3.8-1.6-1.5-5.1-2.8-9.7-3.6-9.7-10.6 0-4.5 3.4-7.4 3.4-2.9 9.1-2.9 5 0 8.4 1.7l-1.5 4.8q-3.2-1.6-7.1-1.7-3.1 0.1-4.9 1.6-1.5 1.4-1.5 3.3 0 2.2 1.7 3.6 1.5 1.4 5.4 2.9 4.7 1.9 7 4.5 2.2 2.5 2.2 6.4 0 4.7-3.2 7.6zm20.8-19.5h-6.5v13q0 4.9 3.4 4.9 1.6 0 2.7-0.3l0.1 4.5q-1.7 0.7-4.6 0.7-3.5 0-5.4-2.2-2-2.1-2-7.1v-13.5h-3.9v-4.4h3.9v-4.9l5.8-1.7v6.6h6.5zm-3.3-22.8c-3.9 0-6.9-2.7-6.9-7.1 0-4.5 3-7.2 7.1-7.2 4.1 0 6.8 2.8 6.8 7 0 5-3.5 7.3-7 7.3zm18 22.2q-3.5 0-5.4 3.1-1.6 2.6-1.6 6.4 0 3.7 1.6 6.3 1.9 3.2 5.4 3.2 3.4 0 5.3-3.3 1.6-2.6 1.6-6.3 0-3.6-1.6-6.3-1.8-3.1-5.3-3.1zm15.7-36.2h1.9v-2.6l3.4-0.9v3.5h3.3v2.6h-3.3v6c0 1.7 0.5 2.5 1.8 2.5 0.6 0 0.9 0 1.3-0.1l0.1 2.6c-0.5 0.2-1.4 0.4-2.5 0.4-1.3 0-2.4-0.4-3-1.1-0.8-0.8-1.1-2.1-1.1-3.9v-6.4h-1.9zm15.1 37.6q-0.8-0.2-1.8-0.2-3.1 0-4.8 2.4c-1 1.4-1.5 3.1-1.5 5.2v14h-5.9v-18.3q0-4.5-0.2-8.3h5.2l0.2 5.1h0.1q1-2.7 3-4.2 2-1.5 4.3-1.5 0.8 0 1.4 0.1zm0.9-32.1v8.2h-3.4v-19.9h3.4v8.1h0.1c0.4-0.7 1-1.2 1.7-1.6 0.7-0.4 1.5-0.6 2.4-0.6 2.3 0 4.8 1.6 4.8 6v8h-3.5v-7.7c0-1.9-0.7-3.5-2.6-3.5-1.4 0-2.3 0.9-2.7 2-0.1 0.3-0.2 0.7-0.2 1zm13.2 30.4q-2.9 0.1-4.8 2.5-1.4 1.9-1.7 4.5h12.3q0.1-2.6-1.1-4.5-1.6-2.5-4.7-2.5zm-111-33.5c-1.4 0-2.7 1-3 2.6q-0.1 0.3-0.1 0.9v2.2q0 0.4 0 0.8c0.4 1.4 1.6 2.4 3.1 2.4 2.2 0 3.5-1.7 3.5-4.5 0-2.4-1.2-4.4-3.5-4.4zm24.9-0.3c-2.1 0-3 1.9-3.1 3.3h6c0-1.2-0.5-3.3-2.9-3.3zm23.3 0.1c-2.4 0-3.4 2.4-3.4 4.7 0 2.6 1.3 4.6 3.4 4.6 1.9 0 3.3-1.9 3.3-4.7 0-2.1-0.9-4.6-3.3-4.6zm-66.6 7.4c0 1.3 0.9 2 2 2 1.4 0 2.4-0.9 2.7-1.9 0.1-0.3 0.1-0.5 0.1-0.8v-1.9c-2.5 0-4.8 0.5-4.8 2.6zm134.6-7.5c-2.1 0-3 1.9-3.2 3.3h6.1c0-1.2-0.6-3.3-2.9-3.3z"/>
				</g>
			</g>
			<g id="&lt;Group&gt;">
				<path id="&lt;Compound Path&gt;" fill-rule="evenodd" class="s0" d="m309.3 116.9h-291.3c-8.5 0-15.5-6.9-15.5-15.4v-83.7c0-8.5 7-15.5 15.5-15.5h291.3c8.5 0 15.5 7 15.5 15.5v83.7c0 8.5-7 15.4-15.5 15.4zm-291.3-110.6c-6.3 0-11.5 5.2-11.5 11.5v83.7c0 6.3 5.2 11.4 11.5 11.4h291.3c6.3 0 11.5-5.1 11.5-11.4v-83.7c0-6.3-5.2-11.5-11.5-11.5z"/>
			</g>
		</g>
	</g>
</svg>